<?xml version="1.0" encoding="UTF-8"?>
<svg width="40px" height="40px" viewBox="0 0 40 40" version="1.1" xmlns="http://www.w3.org/2000/svg" xmlns:xlink="http://www.w3.org/1999/xlink">
    <!-- Generator: Sketch 52.2 (67145) - http://www.bohemiancoding.com/sketch -->
    <title>Agri</title>
    <desc>Created with Sketch.</desc>
    <g id="Welcome" stroke="none" stroke-width="1" fill="none" fill-rule="evenodd">
        <g id="Icons" transform="translate(-399.000000, -21.000000)">
            <g id="Agri" transform="translate(399.000000, 21.000000)">
                <g id="Truck" fill="#9E8D56">
                    <circle id="Oval" cx="20" cy="20" r="20"></circle>
                </g>
                <path d="M25.1580038,24.7265537 C26.4129944,23.0873823 25.7983051,20.6798493 25.772693,20.5774011 C25.7214689,20.4237288 25.6190207,20.2956685 25.4653484,20.2700565 C25.4397363,20.2700565 25.0811676,20.1676083 24.5689266,20.1163842 C24.799435,19.9370998 24.9787194,19.7578154 25.1580038,19.527307 C26.4129944,17.8881356 25.7983051,15.4806026 25.772693,15.3781544 C25.7214689,15.2244821 25.6190207,15.0964218 25.4653484,15.0708098 C25.4397363,15.0708098 25.0811676,14.9683616 24.5689266,14.9171375 C24.799435,14.7378531 25.0043315,14.5329567 25.1580038,14.3280603 C26.4129944,12.6888889 25.7983051,10.2813559 25.772693,10.1789077 C25.7214689,10.0252354 25.6190207,9.89717514 25.4653484,9.87156309 C25.4397363,9.87156309 24.799435,9.69227872 23.9542373,9.69227872 C23.3651601,9.69227872 22.852919,9.76911488 22.3919021,9.92278719 C22.8785311,9.18003766 23.1090395,8.41167608 23.0578154,7.6433145 C22.9041431,5.46629002 20.6246704,4.10885122 20.5478343,4.05762712 C20.419774,3.98079096 20.2404896,3.98079096 20.1124294,4.05762712 C20.0099812,4.10885122 17.7305085,5.46629002 17.6024482,7.6433145 C17.5512241,8.41167608 17.7817326,9.18003766 18.2683616,9.92278719 C17.8073446,9.76911488 17.2694915,9.69227872 16.7060264,9.69227872 C15.8608286,9.69227872 15.2205273,9.87156309 15.1949153,9.87156309 C15.0412429,9.92278719 14.9131827,10.0252354 14.8875706,10.1789077 C14.8619586,10.2813559 14.2472693,12.6888889 15.5022599,14.3280603 C15.6815443,14.5585687 15.8608286,14.7378531 16.0913371,14.9171375 C15.579096,14.9683616 15.2205273,15.0451977 15.1949153,15.0708098 C15.0412429,15.1220339 14.9131827,15.2244821 14.8875706,15.3781544 C14.8619586,15.4806026 14.2472693,17.8881356 15.5022599,19.527307 C15.6815443,19.7578154 15.8608286,19.9370998 16.0913371,20.1163842 C15.579096,20.1676083 15.2205273,20.2444444 15.1949153,20.2700565 C15.0412429,20.3212806 14.9131827,20.4237288 14.8875706,20.5774011 C14.8619586,20.6798493 14.2472693,23.0873823 15.5022599,24.7265537 C15.6815443,24.9570621 15.8608286,25.1363465 16.0913371,25.3156309 C15.579096,25.366855 15.2205273,25.4436911 15.1949153,25.4693032 C15.0412429,25.5205273 14.9131827,25.6229755 14.8875706,25.7766478 C14.8619586,25.879096 14.2472693,28.286629 15.5022599,29.9258004 C16.2450094,30.8734463 17.4231638,31.3600753 19.0367232,31.3600753 C19.3440678,31.3600753 19.6514124,31.3344633 19.9843691,31.3088512 L19.9843691,35.2531073 C19.9843691,35.5092279 20.1892655,35.6885122 20.419774,35.6885122 C20.6758945,35.6885122 20.8551789,35.4836158 20.8551789,35.2531073 L20.8551789,31.3344633 C21.1112994,31.3600753 21.393032,31.3600753 21.6235405,31.3600753 C23.2370998,31.3600753 24.4408663,30.8734463 25.1580038,29.9258004 C26.4129944,28.286629 25.7983051,25.879096 25.772693,25.7766478 C25.7214689,25.6229755 25.6190207,25.4949153 25.4653484,25.4693032 C25.4397363,25.4693032 25.0811676,25.366855 24.5689266,25.3156309 C24.799435,25.1363465 24.9787194,24.9570621 25.1580038,24.7265537 Z M24.9787194,15.8647834 C25.0811676,16.4538606 25.260452,17.9393597 24.4664783,18.9894539 C23.800565,19.8602637 22.5711864,20.2188324 20.8039548,20.039548 C20.6502825,18.5284369 20.906403,17.4015066 21.5210923,16.6843691 C22.1870056,15.9160075 23.2114878,15.7623352 23.9542373,15.7623352 C24.3640301,15.7623352 24.7482109,15.8135593 24.9787194,15.8647834 Z M20.2917137,20.8591337 L20.3173258,20.8591337 C20.6246704,20.9103578 20.906403,20.9103578 21.1881356,20.9359699 C21.0600753,21.0384181 20.9320151,21.1664783 20.8039548,21.2945386 C20.6502825,21.5506591 20.4709981,21.8067797 20.3173258,22.1141243 C20.1636535,21.8067797 19.9843691,21.5250471 19.7794727,21.2945386 C19.6770245,21.1664783 19.5489642,21.0384181 19.3952919,20.9359699 C19.6770245,20.9103578 19.9587571,20.9103578 20.2661017,20.8591337 L20.2917137,20.8591337 Z M19.7794727,16.0952919 C19.6770245,15.9672316 19.5489642,15.8391714 19.3952919,15.7367232 C19.6770245,15.7111111 19.9587571,15.7111111 20.2661017,15.659887 L20.2917137,15.659887 L20.3173258,15.659887 C20.6246704,15.7111111 20.906403,15.7111111 21.1881356,15.7367232 C21.0600753,15.8391714 20.9320151,15.9672316 20.8039548,16.0952919 C20.6502825,16.3514124 20.4709981,16.607533 20.3173258,16.9148776 C20.1636535,16.607533 19.9843691,16.3258004 19.7794727,16.0952919 Z M23.9542373,10.5630885 C24.3896422,10.5630885 24.7482109,10.6143126 24.9787194,10.6655367 C25.0811676,11.2546139 25.260452,12.765725 24.4664783,13.7902072 C23.800565,14.6610169 22.5711864,15.0195857 20.8039548,14.8403013 C20.6502825,13.3291902 20.906403,12.2022599 21.5210923,11.4851224 C22.1870056,10.7167608 23.2114878,10.5630885 23.9542373,10.5630885 Z M18.447646,7.69453861 C18.5500942,6.33709981 19.8050847,5.33822976 20.3173258,4.95404896 C20.8295669,5.3126177 22.0845574,6.31148776 22.1870056,7.69453861 C22.2638418,8.74463277 21.6235405,9.79472693 20.3173258,10.8704331 C19.0111111,9.79472693 18.3964218,8.74463277 18.447646,7.69453861 Z M15.6559322,10.6655367 C15.8864407,10.6143126 16.2450094,10.5630885 16.6804143,10.5630885 C17.4231638,10.5630885 18.447646,10.7167608 19.1135593,11.4851224 C19.7282486,12.2022599 19.9843691,13.3291902 19.8306968,14.8403013 C19.5489642,14.8659134 19.2672316,14.8915254 19.0111111,14.8915254 C17.6792844,14.8915254 16.7316384,14.5329567 16.1681733,13.7902072 C15.3741996,12.765725 15.553484,11.2546139 15.6559322,10.6655367 Z M15.6559322,15.8391714 C15.8864407,15.7879473 16.2450094,15.7367232 16.6804143,15.7367232 C17.4231638,15.7367232 18.447646,15.8903955 19.1135593,16.6587571 C19.7282486,17.3758945 19.9843691,18.5028249 19.8306968,20.013936 C19.5489642,20.039548 19.2672316,20.0651601 19.0111111,20.0651601 C17.6792844,20.0651601 16.7316384,19.7065913 16.1681733,18.9638418 C15.3741996,17.9649718 15.553484,16.4538606 15.6559322,15.8391714 Z M15.6559322,21.0384181 C15.8864407,20.987194 16.2450094,20.9359699 16.6804143,20.9359699 C17.4231638,20.9359699 18.447646,21.0896422 19.1135593,21.8580038 C19.7282486,22.5751412 19.9843691,23.7020716 19.8306968,25.2131827 C19.5489642,25.2387947 19.2672316,25.2644068 19.0111111,25.2644068 C17.6792844,25.2644068 16.7316384,24.905838 16.1681733,24.1630885 C15.3741996,23.1642185 15.553484,21.6531073 15.6559322,21.0384181 Z M19.8306968,30.4124294 C19.5489642,30.4380414 19.2672316,30.4636535 19.0111111,30.4636535 C17.6792844,30.4636535 16.7316384,30.1050847 16.1681733,29.3623352 C15.3741996,28.3378531 15.553484,26.826742 15.6559322,26.2376648 C15.8864407,26.1864407 16.2450094,26.1352166 16.6804143,26.1352166 C17.4231638,26.1352166 18.447646,26.2888889 19.1135593,27.0572505 C19.7538606,27.7743879 19.9843691,28.9013183 19.8306968,30.4124294 Z M20.3173258,27.313371 C20.1636535,27.0060264 19.9843691,26.7242938 19.7794727,26.4937853 C19.6770245,26.365725 19.5489642,26.2376648 19.3952919,26.1352166 C19.6770245,26.1096045 19.9587571,26.1096045 20.2661017,26.0583804 L20.2917137,26.0583804 L20.3173258,26.0583804 C20.6246704,26.1096045 20.906403,26.1096045 21.1881356,26.1352166 C21.0600753,26.2376648 20.9320151,26.365725 20.8039548,26.4937853 C20.6502825,26.7242938 20.4709981,27.0060264 20.3173258,27.313371 Z M24.9787194,26.2376648 C25.0811676,26.826742 25.260452,28.3378531 24.4664783,29.3623352 C23.800565,30.233145 22.5711864,30.5917137 20.8039548,30.4124294 C20.6502825,28.9013183 20.906403,27.7743879 21.5210923,27.0572505 C22.1870056,26.2888889 23.2114878,26.1352166 23.9542373,26.1352166 C24.3640301,26.1352166 24.7482109,26.1864407 24.9787194,26.2376648 Z M24.4664783,24.1630885 C23.800565,25.0338983 22.5711864,25.392467 20.8039548,25.2131827 C20.6502825,23.7020716 20.906403,22.5751412 21.5210923,21.8580038 C22.1870056,21.0896422 23.2114878,20.9359699 23.9542373,20.9359699 C24.3640301,20.9359699 24.7482109,20.987194 24.9787194,21.0384181 C25.0811676,21.6531073 25.260452,23.1386064 24.4664783,24.1630885 Z" id="Shape" fill="#FFFFFF" fill-rule="nonzero"></path>
            </g>
        </g>
    </g>
</svg>