<?xml version="1.0" encoding="UTF-8"?>
<svg width="40px" height="40px" viewBox="0 0 40 40" version="1.1" xmlns="http://www.w3.org/2000/svg" xmlns:xlink="http://www.w3.org/1999/xlink">
    <!-- Generator: Sketch 52.2 (67145) - http://www.bohemiancoding.com/sketch -->
    <title>Intfrastructure</title>
    <desc>Created with Sketch.</desc>
    <g id="Welcome" stroke="none" stroke-width="1" fill="none" fill-rule="evenodd">
        <g id="Icons" transform="translate(-179.000000, -21.000000)">
            <g id="Intfrastructure" transform="translate(179.000000, 21.000000)">
                <g id="Truck" fill="#F16522">
                    <circle id="Oval" cx="20" cy="20" r="20"></circle>
                </g>
                <g id="exchange" transform="translate(10.000000, 10.666667)" fill="#FFFFFF" fill-rule="nonzero">
                    <path d="M19.375,11.8600922 C19.375,12.9302267 18.5074768,13.7975922 17.4375,13.7975922 L2.20491536,13.7975922 L4.75592551,11.246582 L3.84267681,10.3333333 L0.189208984,13.9868012 C-0.0629119974,14.2390798 -0.0629119974,14.6479289 0.189208984,14.9000499 L3.84267681,18.5535177 L4.75592551,17.640269 L2.20491536,15.0892588 L17.4375,15.0892588 C19.2200063,15.0872091 20.6644592,13.6425985 20.6666667,11.8600922 L20.6666667,9.27675884 L19.375,9.27675884 L19.375,11.8600922 Z" id="Shape"></path>
                    <path d="M1.29166667,6.69342551 C1.29166667,5.62344868 2.15918988,4.75592551 3.22916667,4.75592551 L18.4617513,4.75592551 L15.9107412,7.30693565 L16.8239899,8.22018435 L20.4774577,4.56671652 C20.7295787,4.31443788 20.7295787,3.90574647 20.4774577,3.65346782 L16.8239899,0 L15.9107412,0.913248698 L18.4617513,3.46425884 L3.22916667,3.46425884 C1.44666037,3.46646626 0.00220743815,4.91091917 0,6.69342551 L0,9.27675884 L1.29166667,9.27675884 L1.29166667,6.69342551 Z" id="Shape"></path>
                </g>
            </g>
        </g>
    </g>
</svg>