<?xml version="1.0" encoding="UTF-8"?>
<svg width="40px" height="40px" viewBox="0 0 40 40" version="1.1" xmlns="http://www.w3.org/2000/svg" xmlns:xlink="http://www.w3.org/1999/xlink">
    <!-- Generator: Sketch 52.2 (67145) - http://www.bohemiancoding.com/sketch -->
    <title>Oil</title>
    <desc>Created with Sketch.</desc>
    <g id="Welcome" stroke="none" stroke-width="1" fill="none" fill-rule="evenodd">
        <g id="Icons" transform="translate(-106.000000, -21.000000)">
            <g id="Oil" transform="translate(106.000000, 21.000000)">
                <g id="Truck" fill="#6192AD">
                    <circle id="Oval" cx="20" cy="20" r="20"></circle>
                </g>
                <g id="oil-(3)" transform="translate(11.333333, 8.000000)" fill="#FFFFFF" fill-rule="nonzero" stroke="#FFFFFF" stroke-width="0.5">
                    <path d="M16.9198734,3.59989451 L17.6398259,3.59989451 C17.8387654,3.59989451 18,3.4387918 18,3.23998418 L18,1.43990506 C18,1.2412293 17.8387654,1.07999473 17.6398259,1.07999473 L5.39997363,1.07999473 L5.39997363,0.360042195 C5.39997363,0.161102746 5.23887088,0 5.03993143,0 L2.15998945,0 C1.96118183,0 1.79981543,0.161102746 1.79981543,0.360042195 L1.79981543,1.07999473 L0.360042195,1.07999473 C0.161102746,1.07999473 0,1.2412293 0,1.43990506 L0,3.23998418 C0,3.4387918 0.161102746,3.59989451 0.360042195,3.59989451 L1.07999473,3.59989451 L1.07999473,19.0798629 L0.360042195,19.0798629 C0.161102746,19.0798629 0,19.2410974 0,19.4399051 L0,21.2398523 C0,21.4387918 0.161102746,21.5998945 0.360042195,21.5998945 L17.6398259,21.5998945 C17.8387654,21.5998945 18,21.4387918 18,21.2398523 L18,19.4399051 C18,19.2410974 17.8387654,19.0798629 17.6398259,19.0798629 L16.9198734,19.0798629 L16.9198734,3.59989451 Z M1.80007912,7.20005274 L7.35627756,7.20005274 C7.33070149,7.27453968 7.307894,7.34388502 7.28890972,7.41125287 L7.28640484,7.41982215 C7.26122432,7.5077563 7.24316286,7.58698931 7.22918834,7.66147624 C7.22562877,7.68085603 7.22220107,7.70036766 7.21943251,7.71908829 C7.20796283,7.78540145 7.20137108,7.85263743 7.20005274,7.92000527 C7.20005274,8.91404339 8.00583006,9.71995253 9.00013183,9.71995253 C9.99416994,9.71995253 10.7999473,8.91404339 10.7999473,7.92000527 C10.7986289,7.85263743 10.792169,7.78540145 10.7806993,7.71908829 C10.7776671,7.70036766 10.7743712,7.68085603 10.7709435,7.66147624 C10.7564416,7.58659379 10.7387757,7.50736079 10.7135951,7.41916299 L10.7114858,7.41164838 C10.6919741,7.34507153 10.669694,7.27453968 10.6438543,7.20005274 L16.2000527,7.20005274 L16.2000527,17.2799156 L1.80007912,17.2799156 L1.80007912,7.20005274 Z M9.78507918,6.98397469 C9.93708527,7.27651718 10.0368846,7.59318557 10.0799947,7.92000527 C10.0799947,8.51642814 9.59642287,8.99986814 8.99986814,8.99986814 C8.4034453,8.99986814 7.92000527,8.51642814 7.92000527,7.92000527 C7.92053262,7.88928763 7.92330115,7.85870184 7.92857456,7.82851156 C7.93332063,7.79963963 7.94123075,7.76233026 7.95125023,7.72053845 C8.01835439,7.46741469 8.10655219,7.22048719 8.21478899,6.98212898 C8.44774196,6.44213162 8.76638786,5.83661212 8.99986814,5.41183879 C9.23361214,5.83634847 9.55265355,6.44173614 9.78507918,6.98397469 Z M16.1999209,3.59989451 L16.1999209,6.47996835 L10.3498615,6.47996835 C9.92297888,5.54077372 9.33683918,4.54251688 9.31020844,4.49703371 C9.19392969,4.32564783 8.96058124,4.28121931 8.78919536,4.39749805 C8.75004028,4.42426063 8.71629045,4.45801046 8.68952788,4.49703371 C8.66302899,4.54251688 8.07768029,5.54103741 7.64987473,6.47996835 L1.80007912,6.47996835 L1.80007912,3.59989451 L16.1999209,3.59989451 Z M2.52003165,0.71995253 L4.6800211,0.71995253 L4.6800211,1.07999473 L2.52003165,1.07999473 L2.52003165,0.71995253 Z M0.71995253,1.80007912 L17.2799156,1.80007912 L17.2799156,2.87994198 L0.71995253,2.87994198 L0.71995253,1.80007912 Z M17.2799156,20.879942 L0.71995253,20.879942 L0.71995253,19.7998154 L17.2799156,19.7998154 L17.2799156,20.879942 Z M1.80007912,19.0798629 L1.80007912,18 L16.1999209,18 L16.1999209,19.0798629 L1.80007912,19.0798629 Z" id="Shape"></path>
                </g>
            </g>
        </g>
    </g>
</svg>