<?xml version="1.0" encoding="UTF-8"?>
<svg width="40px" height="40px" viewBox="0 0 40 40" version="1.1" xmlns="http://www.w3.org/2000/svg" xmlns:xlink="http://www.w3.org/1999/xlink">
    <!-- Generator: Sketch 52.2 (67145) - http://www.bohemiancoding.com/sketch -->
    <title>Utilities</title>
    <desc>Created with Sketch.</desc>
    <g id="Welcome" stroke="none" stroke-width="1" fill="none" fill-rule="evenodd">
        <g id="Icons" transform="translate(-545.000000, -21.000000)">
            <g id="Utilities" transform="translate(545.000000, 21.000000)">
                <g id="Truck" fill="#D8384C">
                    <circle id="Oval" cx="20" cy="20" r="20"></circle>
                </g>
                <g id="light-bulb" transform="translate(12.000000, 7.333333)" fill="#FFFFFF" fill-rule="nonzero">
                    <path d="M11.5811074,7.64286222 L9.7960534,7.64286222 L11.5396103,4.6071437 C11.6226531,4.48571496 11.6226531,4.32382579 11.5396103,4.20239705 C11.4565676,4.0809683 11.3320278,4 11.165991,4 L8.67519537,4 C8.50915855,4 8.38461877,4.0809683 8.30157603,4.20239705 L5.39561539,9.46429334 C5.31257265,9.58572208 5.31257265,9.74761126 5.39561539,9.86904 C5.47865812,9.99046874 5.6031979,10.071437 5.76923473,10.071437 L7.2637121,10.071437 L5.39561539,14.8071579 C5.31257265,14.9690471 5.39561539,15.2119046 5.56165221,15.2928729 C5.64469495,15.3333333 5.68619199,15.3333333 5.76923473,15.3333333 C5.89377451,15.3333333 6.01831429,15.2928729 6.10135703,15.2119046 L11.9132297,8.3309268 C11.9962724,8.20949806 12.0377695,8.04760888 11.9547267,7.88567227 C11.871684,7.72373566 11.7471442,7.64286222 11.5811074,7.64286222 Z M7.05612958,12.7024089 L8.21848465,9.78811912 C8.25998169,9.66669038 8.25998169,9.54526164 8.1769876,9.4238329 C8.09394487,9.3428646 7.96940509,9.26194372 7.84486531,9.26194372 L6.47492772,9.26194372 L8.92422629,4.80954075 L10.4602007,4.80954075 L8.71664377,7.84525927 C8.63360103,7.96668801 8.63360103,8.12857719 8.71664377,8.25000593 C8.79968651,8.37143467 8.92422629,8.45240297 9.09026311,8.45240297 L10.7092803,8.45240297 L7.05612958,12.7024089 Z" id="Shape"></path>
                    <path d="M16.6152032,7.48223828 C16.199044,3.57666667 13.0361262,0.452238281 9.1240438,0.0410950521 C8.87433849,0.0410950521 8.62463317,0 8.33332657,0 C8.04201996,0 7.79231464,0.0410950521 7.54260933,0.0410950521 C3.6305269,0.493333333 0.467609178,3.61776172 0.0514499117,7.48223828 C-0.239856698,10.1133333 0.717314492,12.7033333 2.63175441,14.5122383 C3.67217696,15.4989049 4.33809031,16.65 4.58779563,17.76 L4.58779563,22.6110951 C4.58779563,22.8577617 4.75424958,23.0221901 5.00395489,23.0221901 L5.62821818,23.0221901 L6.37733412,24.0088568 C6.71024202,24.42 7.16805136,24.6666667 7.70906328,24.6666667 L8.95758985,24.6666667 C9.49860177,24.6666667 9.9980124,24.42 10.2893678,24.0089049 L11.0384837,23.0222383 L11.662747,23.0222383 C11.9124523,23.0222383 12.0789063,22.8578099 12.0789063,22.6111432 L12.0789063,17.76 C12.2870103,16.65 12.9944762,15.4989049 14.0349475,14.5122383 C15.9493386,12.6622383 16.9065586,10.1133333 16.6152032,7.48223828 Z M11.246539,18.9110951 L9.9980124,18.9110951 C9.74830709,18.9110951 9.58185313,19.0755234 9.58185313,19.3221901 C9.58185313,19.5688568 9.74830709,19.7332852 9.9980124,19.7332852 L11.246539,19.7332852 L11.246539,20.5555234 L8.74948583,20.5555234 C8.49978052,20.5555234 8.33332657,20.7199518 8.33332657,20.9666185 C8.33332657,21.2132852 8.49978052,21.3777135 8.74948583,21.3777135 L11.246539,21.3777135 L11.2465877,22.2 L10.8303797,22.2 L5.83627343,22.2 L5.42011416,22.2 L5.42011416,21.3777617 L6.66864073,21.3777617 C6.91834604,21.3777617 7.0848,21.2133333 7.0848,20.9666667 C7.0848,20.72 6.91834604,20.5555716 6.66864073,20.5555716 L5.42011416,20.5555716 L5.42011416,19.7333333 L7.9171673,19.7333333 C8.16687261,19.7333333 8.33332657,19.5689049 8.33332657,19.3222383 C8.33332657,19.0755716 8.16687261,18.9111432 7.9171673,18.9111432 L5.42011416,18.9111432 L5.42011416,18.0889049 L11.2465877,18.0889049 L11.2465877,18.9110951 L11.246539,18.9110951 Z M9.62345443,23.5155716 C9.45700048,23.7211432 9.20729516,23.8444766 8.95758985,23.8444766 L7.70906328,23.8444766 C7.45935797,23.8444766 7.20965265,23.7211432 7.0431987,23.5155716 L6.66864073,23.0222383 L9.99806117,23.0222383 L9.62345443,23.5155716 Z M13.4522855,13.8955716 C12.4118629,14.9233333 11.662747,16.0744766 11.3297903,17.2666667 L5.3368628,17.2666667 C5.00390612,16.0744284 4.25479018,14.9233333 3.21436763,13.8955716 C1.46643043,12.2511432 0.63406313,9.94890495 0.883768444,7.56447656 C1.29992771,4.07004818 4.12993752,1.27447656 7.66741321,0.86338151 C7.87551723,0.86338151 8.08357248,0.822286458 8.33327779,0.822286458 C8.58298311,0.822286458 8.79108713,0.86338151 8.99914237,0.86338151 C12.5366181,1.27447656 15.4082292,4.07004818 15.7827871,7.56447656 C16.03259,9.94890495 15.2002227,12.2510951 13.4522855,13.8955716 Z" id="Shape"></path>
                </g>
            </g>
        </g>
    </g>
</svg>