<?xml version="1.0" encoding="UTF-8"?>
<svg width="40px" height="40px" viewBox="0 0 40 40" version="1.1" xmlns="http://www.w3.org/2000/svg" xmlns:xlink="http://www.w3.org/1999/xlink">
    <!-- Generator: Sketch 52.2 (67145) - http://www.bohemiancoding.com/sketch -->
    <title>Cannabis</title>
    <desc>Created with Sketch.</desc>
    <g id="Welcome" stroke="none" stroke-width="1" fill="none" fill-rule="evenodd">
        <g id="Icons" transform="translate(-326.000000, -21.000000)">
            <g id="Cannabis" transform="translate(326.000000, 21.000000)">
                <circle id="Oval-2" fill="#14A51A" cx="20" cy="20" r="20"></circle>
                <g id="marijuana" transform="translate(7.000000, 6.000000)" fill="#FFFFFF" fill-rule="nonzero">
                    <path d="M25.6901287,18.9921131 C25.5760936,18.9229318 22.8587641,17.2916218 19.462039,17.2916218 C19.1122807,17.2916218 18.7651579,17.3054581 18.4218869,17.3265419 C19.2189669,16.8937661 20.0220273,16.3925692 20.7650292,15.8123587 C24.3528265,13.0110994 25.8606238,8.46023782 25.9229123,8.26805068 C25.9804366,8.09015595 25.942425,7.89477583 25.8215478,7.75169981 C25.7001131,7.60968811 25.5163899,7.54369981 25.3289669,7.56640546 C25.1737271,7.58961793 21.4950565,8.16775049 18.1278791,11.2281988 C17.2179298,12.0554854 16.3941404,12.974152 15.6702456,13.8766511 C15.9912671,12.6244951 16.2183236,11.2199376 16.2183236,9.72308772 C16.2183236,4.54559064 13.5406277,0.409157895 13.4265926,0.235976608 C13.2270058,-0.0681169591 12.7223119,-0.0681169591 12.5227758,0.235976608 C12.4086901,0.409157895 9.73099415,4.54559064 9.73099415,9.72308772 C9.73099415,11.2199376 9.95805068,12.6244951 10.2790721,13.8767018 C9.55517739,12.9742027 8.7314386,12.0554854 7.8214386,11.2282495 C4.45421053,8.16775049 0.775539961,7.58966862 0.620350877,7.56645614 C0.436120858,7.54375049 0.249762183,7.60973879 0.127769981,7.75175049 C0.00689278752,7.89482651 -0.0311189084,8.09015595 0.0264054581,8.26810136 C0.0886939571,8.46023782 1.59649123,13.0110994 5.18438986,15.8123587 C5.92739181,16.3925692 6.73045224,16.8937661 7.52753216,17.3265419 C7.18426121,17.3055088 6.8371384,17.2916218 6.48738012,17.2916218 C3.09060429,17.2916218 0.373325536,18.9229825 0.259290448,18.9921131 C0.0977153996,19.0908421 -0.000456140351,19.2666589 5.06822612e-05,19.455653 C0.000557504873,19.6452047 0.100350877,19.8204639 0.262432749,19.9176218 C0.377988304,19.9867524 3.13226511,21.6164912 6.48732943,21.6164912 C7.2357037,21.6164912 7.97323197,21.5089942 8.67391423,21.3457973 C7.52707602,22.6965302 7.56549318,24.2649942 7.56909162,24.3427914 C7.57649123,24.5090799 7.65991423,24.6632554 7.79559064,24.7598558 C7.88798441,24.8258441 7.99781287,24.8601559 8.10921248,24.8601559 C8.16095906,24.8601559 8.21270565,24.8527563 8.26338791,24.8379571 C8.34468226,24.8136803 10.2790721,24.2239415 11.7615283,22.5107797 C12.027306,22.2036959 12.24154,21.8993489 12.4341326,21.6006277 L12.4341326,25.4007329 C12.4341326,25.6995556 12.6759376,25.9413606 12.9747602,25.9413606 C13.2735828,25.9413606 13.5153879,25.6995556 13.5153879,25.4007329 L13.5153879,21.6006277 C13.7079298,21.8993996 13.9222144,22.2037466 14.1879922,22.5107797 C15.6704483,24.2239415 17.6048382,24.8136803 17.6861326,24.8379571 C17.7368148,24.8527563 17.7885614,24.8601559 17.840308,24.8601559 C17.9517076,24.8601559 18.0615361,24.8258441 18.1539298,24.7598558 C18.2896062,24.6632554 18.3730292,24.5090799 18.3804288,24.3427914 C18.3839766,24.2649435 18.4228499,22.692425 17.2716023,21.3406784 C17.9760858,21.5068655 18.7158441,21.6165419 19.4621404,21.6165419 C22.8589162,21.6165419 25.5761949,19.9851813 25.69023,19.9160507 C25.8512476,19.8178285 25.9494698,19.6425692 25.9494698,19.4540819 C25.9494698,19.2655945 25.8511462,19.0903353 25.6901287,18.9921131 Z M18.8553723,12.0285731 C20.9787563,10.097883 23.275271,9.22518519 24.5322924,8.86356725 C23.9161988,10.3006121 22.4933957,13.0913294 20.0997232,14.9602378 C18.1172865,16.5081754 15.6069435,17.5022573 14.1187096,18.0022378 C15.0019493,16.5398519 16.7061404,13.9824756 18.8553723,12.0285731 Z M5.84959454,14.9602378 C3.46119298,13.0955361 2.03575439,10.3027407 1.41803899,8.86412476 C2.67506043,9.22574269 4.97106823,10.0984405 7.09394542,12.0286238 C9.24054191,13.9798908 10.9457973,16.5388382 11.8301014,18.001731 C10.3418168,17.5017505 7.83198051,16.5076179 5.84959454,14.9602378 Z M6.48732943,20.5352865 C4.53393372,20.5352865 2.76537622,19.9065224 1.7411384,19.4508889 C2.75529045,18.9968772 4.50808577,18.3728265 6.48732943,18.3728265 C8.44756725,18.3728265 10.3993918,18.7756491 11.602538,19.0834425 C10.4331462,19.6932515 8.46079532,20.5352865 6.48732943,20.5352865 Z M10.9442261,21.8034074 C10.2272749,22.6312008 9.3720117,23.1596647 8.76012476,23.4637583 C8.90847173,22.8840546 9.2542768,22.1090721 10.0551579,21.5082846 C10.8671384,20.8995906 11.5249435,20.4455283 12.0254308,20.1176647 C11.7999961,20.6160741 11.4578908,21.209462 10.9442261,21.8034074 Z M13.0696881,17.6446238 C13.037809,17.6985497 13.0040039,17.7549591 12.9746589,17.8053372 C12.9453138,17.7550097 12.9115088,17.6985497 12.8796296,17.6446238 C12.1139727,16.1700741 10.8121988,13.165883 10.8121988,9.72308772 C10.8121988,6.14208187 12.226538,3.0177232 12.9746589,1.61499025 C13.722729,3.0177232 15.1371189,6.14208187 15.1371189,9.72308772 C15.1371189,13.165883 13.835345,16.1700741 13.0696881,17.6446238 Z M15.0051423,21.8034074 C14.4951267,21.2142261 14.1535789,20.6202807 13.9276374,20.1203509 C14.4281248,20.4476569 15.0843587,20.9011618 15.8942105,21.5082846 C16.6992982,22.1122651 17.0445965,22.8872476 17.1918791,23.4674581 C16.5815634,23.1649864 15.7273645,22.6375361 15.0051423,21.8034074 Z M19.4619883,20.5352865 C17.5144211,20.5352865 15.5325419,19.6916296 14.3536218,19.080807 C15.5562612,18.774078 17.5022573,18.3728265 19.4619883,18.3728265 C21.4380897,18.3728265 23.1976764,19.0000195 24.2134503,19.4545887 C23.1998051,19.9091579 21.444425,20.5352865 19.4619883,20.5352865 Z" id="Shape"></path>
                </g>
            </g>
        </g>
    </g>
</svg>