<?xml version="1.0" encoding="UTF-8"?>
<svg width="40px" height="40px" viewBox="0 0 40 40" version="1.1" xmlns="http://www.w3.org/2000/svg" xmlns:xlink="http://www.w3.org/1999/xlink">
    <!-- Generator: Sketch 52.2 (67145) - http://www.bohemiancoding.com/sketch -->
    <title>Mining</title>
    <desc>Created with Sketch.</desc>
    <g id="Welcome" stroke="none" stroke-width="1" fill="none" fill-rule="evenodd">
        <g id="Icons" transform="translate(-33.000000, -21.000000)">
            <g id="Mining" transform="translate(33.000000, 21.000000)">
                <g id="Truck" fill="#804EAC">
                    <circle id="Oval" cx="20" cy="20" r="20"></circle>
                </g>
                <g id="cart" transform="translate(10.000000, 10.000000)" fill="#FFFFFF" fill-rule="nonzero" stroke="#FFFFFF">
                    <path d="M19.6665039,4.078125 L18.7800293,4.078125 L16.2800293,2.15441894 C12.5738525,-0.689575187 7.42199706,-0.698120125 3.70629881,2.13330078 L1.16027831,4.078125 L0.333374031,4.078125 C0.149169937,4.078125 0,4.22729494 0,4.41149903 L0,6.41149903 C0,6.595459 0.149169937,6.74475097 0.333374031,6.74475097 L0.703613281,6.74475097 L2.00366212,17.7836914 C2.02331544,17.9510498 2.16479494,18.0773926 2.33337403,18.0780029 L4.03002931,18.0780029 C4.21289062,19.1661377 5.24316406,19.8997803 6.33129881,19.7167969 C7.17089844,19.5754394 7.82885744,18.9177246 7.96997069,18.0780029 L12.0300293,18.0780029 C12.2130127,19.1661377 13.2432861,19.8997803 14.3312988,19.7167969 C15.1708984,19.5754394 15.8287353,18.9177246 15.9699707,18.0780029 L17.666626,18.0780029 C17.8356934,18.0780029 17.9779053,17.9515381 17.9976807,17.7836914 L19.2963867,6.74475097 L19.6667481,6.74475097 C19.850708,6.74475097 20,6.595459 20,6.41149903 L20,4.41149903 C20,4.22729494 19.850708,4.078125 19.6665039,4.078125 Z M4.11071778,2.66345216 C7.58654784,0.0144043125 12.4060059,0.022338875 15.8729248,2.68261719 L17.6866455,4.078125 L2.25891113,4.078125 L4.11071778,2.66345216 Z M6,19.0780029 C5.26367187,19.0780029 4.66662597,18.4810791 4.66662597,17.744751 C4.66662597,17.0083008 5.26367187,16.4113769 6,16.4113769 C6.73632812,16.4113769 7.33337403,17.0083008 7.33337403,17.744751 C7.33337403,18.4810791 6.73632812,19.0780029 6,19.0780029 Z M13.9998779,19.0780029 C13.2635498,19.0780029 12.666626,18.4810791 12.666626,17.744751 C12.666626,17.0083008 13.2635498,16.4113769 13.9998779,16.4113769 C14.7363281,16.4113769 15.3332519,17.0083008 15.3332519,17.744751 C15.3332519,18.4810791 14.7363281,19.0780029 13.9998779,19.0780029 Z M17.3702393,17.4113769 L15.97229,17.4113769 C15.97229,17.4036865 15.9680176,17.3967285 15.9663086,17.3890381 C15.9481201,17.2886963 15.9222412,17.1898193 15.888916,17.0933838 C15.8830566,17.0760498 15.8763428,17.0600586 15.8698731,17.0412597 C15.8344727,16.9466553 15.7918701,16.8547363 15.7426758,16.7663574 C15.7353516,16.7536621 15.7271728,16.7418213 15.7198486,16.7290039 C15.6669922,16.6383057 15.6068115,16.5520019 15.5402832,16.4705811 L15.534668,16.4643555 C15.4671631,16.3842773 15.3935547,16.3094482 15.3143311,16.2409668 C15.3052978,16.2330322 15.2972412,16.2246094 15.2883301,16.2172852 C15.2104492,16.1519775 15.1275635,16.0927734 15.0405273,16.0400391 C15.0258789,16.0310059 15.0115967,16.0219727 14.996582,16.0133057 C14.9095459,15.9630127 14.8187256,15.9193115 14.7249756,15.8826904 L14.675293,15.8643799 C14.5776367,15.8289795 14.477417,15.8012695 14.3752441,15.7813721 C14.3620606,15.7786865 14.3486328,15.7774658 14.3353272,15.7750244 C14.1132812,15.7344971 13.8859863,15.7344971 13.6639404,15.7750244 C13.6506348,15.7772217 13.637207,15.7786865 13.6239014,15.7813721 C13.5219727,15.8012695 13.4216309,15.8289795 13.3239746,15.8643799 L13.2741699,15.8826904 C13.180542,15.9193115 13.0897217,15.9630127 13.0025635,16.0133057 C12.9876709,16.0219727 12.9732666,16.0310059 12.9586182,16.0400391 C12.8717041,16.0927734 12.7888184,16.1519775 12.7108154,16.2172852 C12.7020264,16.2246094 12.6939697,16.2330322 12.6849365,16.2409668 C12.6057129,16.3094482 12.5319824,16.3842773 12.4645996,16.4643555 L12.4589844,16.4705811 C12.3922119,16.5520019 12.3322754,16.6384277 12.2792969,16.7293701 C12.2719727,16.7415772 12.263916,16.7536621 12.256958,16.7663574 C12.2072754,16.8547363 12.1645508,16.9465332 12.1293945,17.0412597 C12.1229248,17.0587158 12.1162109,17.074707 12.1102295,17.0933838 C12.0770264,17.1898193 12.0510254,17.2886963 12.032959,17.3890381 C12.03125,17.3967285 12.0283203,17.4036865 12.0269775,17.4113769 L7.97229003,17.4113769 C7.97229003,17.4036865 7.96801756,17.3967285 7.96630859,17.3890381 C7.94812012,17.2886963 7.92236328,17.1898193 7.888916,17.0933838 C7.88293456,17.0760498 7.87646484,17.0600586 7.86999512,17.0412597 C7.83447266,16.9466553 7.79187012,16.8547363 7.74255372,16.7663574 C7.7352295,16.7536621 7.72729494,16.7418213 7.71997069,16.7290039 C7.66687012,16.6383057 7.60681153,16.5520019 7.54028319,16.4705811 L7.53466797,16.4643555 C7.46716309,16.3842773 7.39343262,16.3094482 7.31433106,16.2409668 C7.30529784,16.2330322 7.29736328,16.2246094 7.28833006,16.2172852 C7.21032716,16.1519775 7.12768556,16.0927734 7.04064941,16.0400391 C7.02600097,16.0310059 7.01171875,16.0219727 6.99658203,16.0133057 C6.90966797,15.9630127 6.81884766,15.9193115 6.72497559,15.8826904 L6.67541503,15.8643799 C6.57763672,15.8289795 6.47729494,15.8012695 6.37524413,15.7813721 C6.36193847,15.7786865 6.34875488,15.7774658 6.33532716,15.7750244 C6.11340331,15.7344971 5.88586425,15.7344971 5.6640625,15.7750244 C5.65063475,15.7772217 5.63732909,15.7786865 5.62402344,15.7813721 C5.52197266,15.8012695 5.42175294,15.8289795 5.32397462,15.8643799 L5.274292,15.8826904 C5.180542,15.9193115 5.08972169,15.9630127 5.00256347,16.0133057 C4.98767091,16.0219727 4.97326659,16.0310059 4.95861816,16.0400391 C4.87170409,16.0927734 4.78894044,16.1519775 4.7109375,16.2172852 C4.70202637,16.2246094 4.69409181,16.2330322 4.68505859,16.2409668 C4.60583497,16.3094482 4.5321045,16.3842773 4.46472169,16.4643555 L4.45910644,16.4705811 C4.392334,16.5520019 4.33227538,16.6384277 4.27929688,16.7293701 C4.27197266,16.7415772 4.26403809,16.7536621 4.25708006,16.7663574 C4.20739747,16.8547363 4.16467284,16.9465332 4.12927247,17.0412597 C4.12292481,17.0587158 4.116333,17.074707 4.11035156,17.0933838 C4.07702637,17.1898193 4.05114747,17.2886963 4.03308106,17.3890381 C4.03137206,17.3967285 4.02832031,17.4036865 4.02697753,17.4113769 L2.62963869,17.4113769 L2.31591797,14.744751 L17.6826172,14.744751 L17.3702393,17.4113769 Z M17.7625733,14.0780029 L2.23742675,14.0780029 L1.37463378,6.74475097 L18.6252441,6.74475097 L17.7625733,14.0780029 Z M19.3332519,6.07800294 L0.666625969,6.07800294 L0.666625969,4.74475097 L19.3332519,4.74475097 L19.3332519,6.07800294 Z" id="Shape" stroke-width="0.5"></path>
                    <path d="M11.6667481,12.744751 C11.850708,12.744751 12,12.5955811 12,12.4113769 L12,8.41137694 C12,8.22729494 11.850708,8.07800294 11.6667481,8.07800294 C11.4825439,8.07800294 11.3332519,8.22729494 11.3332519,8.41137694 L11.3332519,12.4113769 C11.3332519,12.5955811 11.4825439,12.744751 11.6667481,12.744751 Z" id="Shape"></path>
                    <path d="M15,12.744751 C15.18396,12.744751 15.3332519,12.5955811 15.3332519,12.4113769 L15.3332519,8.41137694 C15.3332519,8.22729494 15.18396,8.07800294 15,8.07800294 C14.8157959,8.07800294 14.666626,8.22729494 14.666626,8.41137694 L14.666626,12.4113769 C14.666626,12.5955811 14.8157959,12.744751 15,12.744751 Z" id="Shape"></path>
                    <path d="M8.33325194,12.744751 C8.51745606,12.744751 8.66662597,12.5955811 8.66662597,12.4113769 L8.66662597,8.41137694 C8.66662597,8.22729494 8.51745606,8.07800294 8.33325194,8.07800294 C8.149292,8.07800294 8,8.22729494 8,8.41137694 L8,12.4113769 C8,12.5955811 8.149292,12.744751 8.33325194,12.744751 Z" id="Shape"></path>
                    <path d="M5,12.744751 C5.18395997,12.744751 5.33325194,12.5955811 5.33325194,12.4113769 L5.33325194,8.41137694 C5.33325194,8.22729494 5.18395997,8.07800294 5,8.07800294 C4.81579591,8.07800294 4.66662597,8.22729494 4.66662597,8.41137694 L4.66662597,12.4113769 C4.66662597,12.5955811 4.81579591,12.744751 5,12.744751 Z" id="Shape"></path>
                </g>
            </g>
        </g>
    </g>
</svg>