<?xml version="1.0" encoding="UTF-8"?>
<svg width="40px" height="40px" viewBox="0 0 40 40" version="1.1" xmlns="http://www.w3.org/2000/svg" xmlns:xlink="http://www.w3.org/1999/xlink">
    <!-- Generator: Sketch 52.2 (67145) - http://www.bohemiancoding.com/sketch -->
    <title>Real Estate</title>
    <desc>Created with Sketch.</desc>
    <g id="Welcome" stroke="none" stroke-width="1" fill="none" fill-rule="evenodd">
        <g id="Icons" transform="translate(-472.000000, -21.000000)">
            <g id="Real-Estate" transform="translate(472.000000, 21.000000)">
                <circle id="Oval" fill="#F1A922" cx="20" cy="20" r="20"></circle>
                <g id="flat" transform="translate(8.666667, 9.333333)" fill="#FFFFFF" fill-rule="nonzero">
                    <path d="M4.97809756,12.9355718 C4.62188076,12.9355718 4.33311111,13.2243415 4.33311111,13.5805583 L4.33311111,14.7001626 C4.33311111,15.0563794 4.62188076,15.3451491 4.97809756,15.3451491 C5.33431436,15.3451491 5.62308401,15.0563794 5.62308401,14.7001626 L5.62308401,13.5805583 C5.62308401,13.2243415 5.3344065,12.9355718 4.97809756,12.9355718 Z" id="Shape"></path>
                    <path d="M7.5581355,12.9355718 C7.2019187,12.9355718 6.91314905,13.2243415 6.91314905,13.5805583 L6.91314905,14.7001626 C6.91314905,15.0563794 7.2019187,15.3451491 7.5581355,15.3451491 C7.9143523,15.3451491 8.20312195,15.0563794 8.20312195,14.7001626 L8.20312195,13.5805583 C8.20312195,13.2243415 7.91444444,12.9355718 7.5581355,12.9355718 Z" id="Shape"></path>
                    <path d="M10.1382656,12.9355718 C9.78204878,12.9355718 9.49327913,13.2243415 9.49327913,13.5805583 L9.49327913,14.7001626 C9.49327913,15.0563794 9.78204878,15.3451491 10.1382656,15.3451491 C10.4944824,15.3451491 10.783252,15.0563794 10.783252,14.7001626 L10.783252,13.5805583 C10.783252,13.2243415 10.4944824,12.9355718 10.1382656,12.9355718 Z" id="Shape"></path>
                    <path d="M12.4627046,12.9355718 C12.1064878,12.9355718 11.8177182,13.2243415 11.8177182,13.5805583 L11.8177182,14.7001626 C11.8177182,15.0563794 12.1064878,15.3451491 12.4627046,15.3451491 C12.8189214,15.3451491 13.1076911,15.0563794 13.1076911,14.7001626 L13.1076911,13.5805583 C13.1076911,13.2243415 12.8189214,12.9355718 12.4627046,12.9355718 Z" id="Shape"></path>
                    <path d="M15.0428347,12.9355718 C14.6866179,12.9355718 14.3978482,13.2243415 14.3978482,13.5805583 L14.3978482,14.7001626 C14.3978482,15.0563794 14.6866179,15.3451491 15.0428347,15.3451491 C15.3990515,15.3451491 15.6878211,15.0563794 15.6878211,14.7001626 L15.6878211,13.5805583 C15.6878211,13.2243415 15.3990515,12.9355718 15.0428347,12.9355718 Z" id="Shape"></path>
                    <path d="M17.6228726,12.9355718 C17.2666558,12.9355718 16.9778862,13.2243415 16.9778862,13.5805583 L16.9778862,14.7001626 C16.9778862,15.0563794 17.2666558,15.3451491 17.6228726,15.3451491 C17.9790894,15.3451491 18.2678591,15.0563794 18.2678591,14.7001626 L18.2678591,13.5805583 C18.2678591,13.2243415 17.9790894,12.9355718 17.6228726,12.9355718 Z" id="Shape"></path>
                    <path d="M4.97809756,9.33516531 C4.62188076,9.33516531 4.33311111,9.62393496 4.33311111,9.98015176 L4.33311111,11.0997561 C4.33311111,11.4559729 4.62188076,11.7447425 4.97809756,11.7447425 C5.33431436,11.7447425 5.62308401,11.4559729 5.62308401,11.0997561 L5.62308401,9.98015176 C5.62308401,9.62393496 5.3344065,9.33516531 4.97809756,9.33516531 Z" id="Shape"></path>
                    <path d="M7.5581355,9.33516531 C7.2019187,9.33516531 6.91314905,9.62393496 6.91314905,9.98015176 L6.91314905,11.0997561 C6.91314905,11.4559729 7.2019187,11.7447425 7.5581355,11.7447425 C7.9143523,11.7447425 8.20312195,11.4559729 8.20312195,11.0997561 L8.20312195,9.98015176 C8.20312195,9.62393496 7.91444444,9.33516531 7.5581355,9.33516531 Z" id="Shape"></path>
                    <path d="M10.1382656,9.33516531 C9.78204878,9.33516531 9.49327913,9.62393496 9.49327913,9.98015176 L9.49327913,11.0997561 C9.49327913,11.4559729 9.78204878,11.7447425 10.1382656,11.7447425 C10.4944824,11.7447425 10.783252,11.4559729 10.783252,11.0997561 L10.783252,9.98015176 C10.783252,9.62393496 10.4944824,9.33516531 10.1382656,9.33516531 Z" id="Shape"></path>
                    <path d="M12.4627046,9.33516531 C12.1064878,9.33516531 11.8177182,9.62393496 11.8177182,9.98015176 L11.8177182,11.0997561 C11.8177182,11.4559729 12.1064878,11.7447425 12.4627046,11.7447425 C12.8189214,11.7447425 13.1076911,11.4559729 13.1076911,11.0997561 L13.1076911,9.98015176 C13.1076911,9.62393496 12.8189214,9.33516531 12.4627046,9.33516531 Z" id="Shape"></path>
                    <path d="M15.0428347,9.33516531 C14.6866179,9.33516531 14.3978482,9.62393496 14.3978482,9.98015176 L14.3978482,11.0997561 C14.3978482,11.4559729 14.6866179,11.7447425 15.0428347,11.7447425 C15.3990515,11.7447425 15.6878211,11.4559729 15.6878211,11.0997561 L15.6878211,9.98015176 C15.6878211,9.62393496 15.3990515,9.33516531 15.0428347,9.33516531 Z" id="Shape"></path>
                    <path d="M17.6228726,9.33516531 C17.2666558,9.33516531 16.9778862,9.62393496 16.9778862,9.98015176 L16.9778862,11.0997561 C16.9778862,11.4559729 17.2666558,11.7447425 17.6228726,11.7447425 C17.9790894,11.7447425 18.2678591,11.4559729 18.2678591,11.0997561 L18.2678591,9.98015176 C18.2678591,9.62393496 17.9790894,9.33516531 17.6228726,9.33516531 Z" id="Shape"></path>
                    <path d="M8.72040108,2.74708943 C8.36418428,2.74708943 8.07541463,3.03585908 8.07541463,3.39207588 L8.07541463,4.51168022 C8.07541463,4.86789702 8.36418428,5.15666667 8.72040108,5.15666667 C9.07661789,5.15666667 9.36538753,4.86789702 9.36538753,4.51168022 L9.36538753,3.39207588 C9.36538753,3.03585908 9.07661789,2.74708943 8.72040108,2.74708943 Z" id="Shape"></path>
                    <path d="M11.3005312,2.74708943 C10.9443144,2.74708943 10.6555447,3.03585908 10.6555447,3.39207588 L10.6555447,4.51168022 C10.6555447,4.86789702 10.9443144,5.15666667 11.3005312,5.15666667 C11.656748,5.15666667 11.9455176,4.86789702 11.9455176,4.51168022 L11.9455176,3.39207588 C11.9455176,3.03585908 11.656748,2.74708943 11.3005312,2.74708943 Z" id="Shape"></path>
                    <path d="M13.8806612,2.74708943 C13.5244444,2.74708943 13.2356748,3.03585908 13.2356748,3.39207588 L13.2356748,4.51168022 C13.2356748,4.86789702 13.5244444,5.15666667 13.8806612,5.15666667 C14.236878,5.15666667 14.5256477,4.86789702 14.5256477,4.51168022 L14.5256477,3.39207588 C14.5256477,3.03585908 14.236878,2.74708943 13.8806612,2.74708943 Z" id="Shape"></path>
                    <path d="M21.9559837,6.19905691 L17.1797669,6.19905691 L17.1797669,0.65502981 C17.1797669,0.298813008 16.8909973,0.0100433604 16.5347805,0.0100433604 L6.0661897,0.0100433604 C5.7099729,0.0100433604 5.42120325,0.298813008 5.42120325,0.65502981 L5.42120325,6.19896477 L0.64498645,6.19896477 C0.288769648,6.19896477 2.84217094e-14,6.48773442 2.84217094e-14,6.84395122 C2.84217094e-14,7.20016802 0.288769648,7.48893767 0.64498645,7.48893767 L1.25136585,7.48893767 L1.25136585,20.6558753 C1.25136585,21.0120921 1.5401355,21.3008618 1.8963523,21.3008618 L20.7046179,21.3008618 C21.0608347,21.3008618 21.3496043,21.0120921 21.3496043,20.6558753 L21.3496043,7.48893767 L21.9559837,7.48893767 C22.3122005,7.48893767 22.6009702,7.20016802 22.6009702,6.84395122 C22.6009702,6.48773442 22.3122005,6.19905691 21.9559837,6.19905691 Z M14.4788401,20.010981 L11.9410949,20.010981 C11.9437669,19.9870244 11.9455176,19.9626992 11.9455176,19.9380054 L11.9455176,18.9688672 L14.4788401,18.9688672 L14.4788401,20.010981 Z M10.6598753,20.010981 L8.12213008,20.010981 L8.12213008,18.9688672 L10.6554526,18.9688672 L10.6554526,19.9380054 C10.6555447,19.9626992 10.6572033,19.9869322 10.6598753,20.010981 Z M15.768813,20.010981 L15.768813,18.3238808 C15.768813,17.967664 15.4800434,17.6788943 15.1238266,17.6788943 L7.47714363,17.6788943 C7.12092683,17.6788943 6.83215718,17.967664 6.83215718,18.3238808 L6.83215718,20.010981 L2.54133875,20.010981 L2.54133875,7.48902981 L20.0596314,7.48902981 L20.0596314,20.010981 L15.768813,20.010981 Z M6.71117615,1.30001626 L15.889794,1.30001626 L15.889794,6.19896477 L6.71117615,6.19896477 L6.71117615,1.30001626 Z" id="Shape"></path>
                </g>
            </g>
        </g>
    </g>
</svg>