<?xml version="1.0" encoding="UTF-8"?>
<svg width="40px" height="40px" viewBox="0 0 40 40" version="1.1" xmlns="http://www.w3.org/2000/svg" xmlns:xlink="http://www.w3.org/1999/xlink">
    <!-- Generator: Sketch 52.2 (67145) - http://www.bohemiancoding.com/sketch -->
    <title>Retail</title>
    <desc>Created with Sketch.</desc>
    <g id="Welcome" stroke="none" stroke-width="1" fill="none" fill-rule="evenodd">
        <g id="Icons" transform="translate(-252.000000, -21.000000)">
            <g id="Retail" transform="translate(252.000000, 21.000000)">
                <g id="Truck" fill="#9BC6B8">
                    <circle id="Oval" cx="20" cy="20" r="20"></circle>
                </g>
                <g id="shop" transform="translate(9.333333, 10.666667)" fill="#FFFFFF" fill-rule="nonzero">
                    <path d="M15.6110204,10.45 L12.6253061,10.45 C11.8081633,10.45 11.1436735,11.1144898 11.1436735,11.9316327 L11.1436735,14.2214286 C11.1436735,15.0385714 11.8081633,15.7030612 12.6253061,15.7030612 L15.6110204,15.7030612 C16.4281633,15.7030612 17.0926531,15.0385714 17.0926531,14.2214286 L17.0926531,11.9316327 C17.0926531,11.1144898 16.4281633,10.45 15.6110204,10.45 Z M16.015102,14.2214286 C16.015102,14.4459184 15.8310204,14.6255102 15.6110204,14.6255102 L12.6253061,14.6255102 C12.4008163,14.6255102 12.2212245,14.4414286 12.2212245,14.2214286 L12.2212245,11.9316327 C12.2212245,11.7071429 12.4053061,11.527551 12.6253061,11.527551 L15.6110204,11.527551 C15.8355102,11.527551 16.015102,11.7116327 16.015102,11.9316327 L16.015102,14.2214286 Z" id="Shape"></path>
                    <path d="M21.9730612,6.28795918 C21.9730612,6.19367347 21.9506122,6.10387755 21.9012245,6.02306122 L18.6326531,0.276122449 C18.5383673,0.11 18.3587755,0.00224489796 18.1657143,0.00224489796 L3.80285714,0.00224489796 C3.60979592,0.00224489796 3.43020408,0.105510204 3.33591837,0.276122449 L0.0718367347,6.02306122 C0.0269387755,6.10387755 0,6.19367347 0,6.28795918 C0,7.57653061 0.776734694,8.68102041 1.88571429,9.17040816 L1.88571429,18.6483673 C1.88571429,18.9446939 2.12816327,19.1871429 2.4244898,19.1871429 L5.40122449,19.1871429 C5.40571429,19.1871429 5.41020408,19.1871429 5.41469388,19.1871429 L9.59020408,19.1871429 C9.59469388,19.1871429 9.59918367,19.1871429 9.60367347,19.1871429 L19.5440816,19.1871429 C19.8404082,19.1871429 20.0828571,18.9446939 20.0828571,18.6483673 L20.0828571,9.2377551 C20.0828571,9.21530612 20.0828571,9.19734694 20.0783673,9.17938776 C21.1918367,8.69 21.9730612,7.58102041 21.9730612,6.28795918 Z M4.11714286,1.08428571 L17.8514286,1.08428571 L20.4061224,5.57857143 L1.56693878,5.57857143 L4.11714286,1.08428571 Z M15.6379592,6.65163265 C15.4673469,7.62142857 14.6187755,8.3577551 13.5995918,8.3577551 C12.5804082,8.3577551 11.7318367,7.62142857 11.5612245,6.65163265 L15.6379592,6.65163265 Z M10.4163265,6.65163265 C10.2457143,7.62142857 9.39714286,8.3577551 8.37795918,8.3577551 C7.35877551,8.3577551 6.51020408,7.62142857 6.33510204,6.65163265 L10.4163265,6.65163265 Z M1.11346939,6.65163265 L5.19469388,6.65163265 C5.02408163,7.62142857 4.17102041,8.3577551 3.15183673,8.3577551 C2.13265306,8.3622449 1.28408163,7.62142857 1.11346939,6.65163265 Z M9.05142857,18.1095918 L5.95346939,18.1095918 L5.95346939,12.2953061 C5.95346939,11.8732653 6.29469388,11.527551 6.72122449,11.527551 L8.28816327,11.527551 C8.71020408,11.527551 9.05591837,11.8687755 9.05591837,12.2953061 L9.05591837,18.1095918 L9.05142857,18.1095918 Z M19.0053061,18.1095918 L10.1289796,18.1095918 L10.1289796,12.2953061 C10.1289796,11.2806122 9.30285714,10.45 8.28367347,10.45 L6.71673469,10.45 C5.70204082,10.45 4.87142857,11.2761224 4.87142857,12.2953061 L4.87142857,18.1140816 L2.96326531,18.1140816 L2.96326531,9.43530612 C3.02612245,9.43979592 3.08897959,9.43979592 3.15183673,9.43979592 C4.23836735,9.43979592 5.19918367,8.88755102 5.76489796,8.04795918 C6.33061224,8.88755102 7.29142857,9.43979592 8.37795918,9.43979592 C9.4644898,9.43979592 10.4208163,8.88755102 10.9910204,8.04795918 C11.5567347,8.88755102 12.517551,9.43979592 13.5995918,9.43979592 C14.6861224,9.43979592 15.642449,8.88755102 16.2081633,8.04795918 C16.7738776,8.88755102 17.7346939,9.43979592 18.8212245,9.43979592 C18.8840816,9.43979592 18.942449,9.43530612 19.0053061,9.43530612 L19.0053061,18.1095918 Z M18.8212245,8.3622449 C17.8020408,8.3622449 16.9534694,7.62591837 16.7828571,6.65612245 L20.8640816,6.65612245 C20.6889796,7.62142857 19.8404082,8.3622449 18.8212245,8.3622449 Z" id="Shape"></path>
                </g>
            </g>
        </g>
    </g>
</svg>